<svg id="Layer_1" data-name="Layer 1" xmlns="http://www.w3.org/2000/svg" viewBox="0 0 74.9 100">
    <defs>
        <style>
            .cls-1{fill:#4cce3e}.cls-2{fill:#55ba47}
        </style>
    </defs>
    <title>
        marketpointsvg
    </title>
    <path class="cls-1" d="M42,35.49,39.5,37.23,31.34,25.05,27.61,34A3.57,3.57,0,0,0,28,37.44l3.75,5.3-2.38,1.69,9.38-.1Z" transform="translate(-12.5)"/>
    <path class="cls-2" d="M45.33,18.56l-8.72.75a4.68,4.68,0,0,0-3.41,7.38l2.15,3,11.09-1.17Z" transform="translate(-12.5)"/>
    <path class="cls-1" d="M55.85,46.21,49.38,59.36,59,58.13a3.61,3.61,0,0,0,2.81-2.06l2.72-5.9,2.65,1.23-4.78-8.08L53.11,45Z" transform="translate(-12.5)"/>
    <path class="cls-2" d="M51.43,53.47l-6.57-9L36.8,50.39l5,7.17a4.69,4.69,0,0,0,8.1-.74Z" transform="translate(-12.5)"/>
    <path class="cls-1" d="M61,17.48l-6.46.6-.28-2.91-4.6,8.18,6,7.2-.28-3,14.63-1-5.86-7.69A3.66,3.66,0,0,0,61,17.48Z" transform="translate(-12.5)"/>
    <path class="cls-2" d="M63.87,27.75,59.34,37.93l9.18,4L72.22,34a4.67,4.67,0,0,0-4.68-6.63Z" transform="translate(-12.5)"/>
    <path class="cls-2" d="M50,0C29.4,0,12.7,16.9,12.5,37.8a37.48,37.48,0,0,0,5.9,19.9L47.1,97.8A3.53,3.53,0,0,0,50,100c1.1,0,2.1-.7,2.9-2.2L81.5,57.7a36.88,36.88,0,0,0,5.9-19.9C87.3,16.9,70.6,0,50,0Zm0,65.27c-15,0-27.12-12.5-27.12-27.91S35,9.46,50,9.46,77.12,22,77.12,37.36,65,65.27,50,65.27Z" transform="translate(-12.5)"/>
</svg>
