<svg id="Layer_1" data-name="Layer 1" xmlns="http://www.w3.org/2000/svg" viewBox="0 0 468.98 511">
    <defs>
        <style>
            .cls-2{fill:#051f38}.cls-3{fill:#041523}.cls-4{fill:#34cb79}.cls-5{fill:#161826;opacity:.1}.cls-10,.cls-5{isolation:isolate}.cls-6{fill:#63c}.cls-7{fill:#ffb39f}.cls-8{fill:#965450}.cls-9{fill:#76413b}.cls-10{fill:#352c38;opacity:.2}.cls-12{fill:#322153}.cls-13{fill:#fff}.cls-14{fill:#1f2733}.cls-15{fill:#091e1d}.cls-16{fill:#e09b8d}.cls-17{fill:#dd9078}.cls-18{fill:#e1edff}.cls-19{fill:#b1c5e8}.cls-20{fill:#c0d5ff}
        </style>
    </defs>
    <title>
        peoples
    </title>
    <path d="M228,465C102.08,465,0,475.29,0,488s102.08,23,228,23,228-10.3,228-23S353.92,465,228,465Z" style="fill:#f0f0f5"/>
    <path class="cls-2" d="M53.22,445.16s-2.54,40.7-4.74,41.51c-8.43,2.88-72.09,19-11.9-8.07L35,449Z"/>
    <path class="cls-3" d="M50.59,476.76c1.5-12.34,2.66-31.6,2.66-31.6L35,449l1.51,26.4C41,476.68,46.22,476.76,50.59,476.76Z"/>
    <path class="cls-4" d="M103.39,223.21S120,357.31,116.67,465.8c0,0-19.87,5.54-25.07,1.5C87.1,441.59,87.67,391.55,81,354.42c-6.35-35.05-8.89-63.76-8.89-63.76L70,288.36S56.37,457.85,53.36,470.76c-17.21,4-22.64-.69-22.64-.69s-7.86-212-3-246.28C34,179.06,103.39,223.21,103.39,223.21Z"/>
    <path class="cls-5" d="M106.39,251c-1.73-17.29-3.12-27.67-3.12-27.67S34,179.17,27.6,223.91c-.58,4.15-.93,11-1.27,19.6C31.53,246.39,96.45,255.61,106.39,251Z"/>
    <path class="cls-6" d="M119.68,125.1c-3.82-22.6-33.39-19.49-33.39-19.49h0c-3.82,5.3-9.13,9.11-16.41,9.34-8.32.23-15.94-2.65-20-9-12.94,1.5-25.77,5.19-28.66,14-2.42,7.28-3.05,27.48-2.93,49.28l-.05,0c.11,15.74.6,32.33,1.09,45.47.55,14.74,1.09,25.14,1.09,25.14h0v.07s51.75,8.88,94.27.81c0,0-.58-52.69-1.79-88.32l10.24,1.5S123.5,147.7,119.68,125.1Z"/>
    <path id="menhands" class="cls-7" d="M133.19,199.23s-11.55-28.59-2.31,1.39c0,0-9-23.29-2.89.57,0,0-9.24-16.14-2.54,1.16l-8.32,3.11h0l2-.81-13.86-.81s-47.71-2.31-49.32-4.61-7.74-43.81-7.74-43.81l-28.53,6.92s6.93,46.81,24,56.95c9.86,5.8,34-.18,52.3-6.16l17.84-4.67s21.72-5.77,21.72-10.15S127.65,178.13,133.19,199.23Z"/>
    <path class="cls-7" d="M164.62,187.36s-11.56-28.6-2.31,1.38c0,0-9-23.29-2.89.58,0,0-9.24-16.15-3.35,1.26l-6.36,3a19.85,19.85,0,0,0,7.74-.69c7.4-1.5,9.48-4,9.48-6.34C166.93,182.17,159.07,166.37,164.62,187.36Z"/>
    <path class="cls-8" d="M434.38,398.81S402,491.05,398.57,491.05,325.78,513,387,485.29c0,0,6.93-100.31,17.33-104.92S434.38,398.81,434.38,398.81Z"/>
    <path class="cls-9" d="M410.12,465.23c10.51-27.33,24.26-66.42,24.26-66.42s-19.64-23.06-30-18.44c-6.7,3-12,46.12-14.9,76.09C396.37,459.23,403.22,462.23,410.12,465.23Z"/>
    <path class="cls-2" d="M377,490.25s-2.66,6.11,22.76-.35l-1.15,3.46S326.94,510.19,377,490.25Z"/>
    <path class="cls-8" d="M414.74,359.73s50,84,47.83,86.7-29.92,69.76-11.9,5.08c0,0-72.55-69.76-69.43-80.71S414.74,359.73,414.74,359.73Z"/>
    <path class="cls-2" d="M448.13,462.34s3,6,14.32-17.64l2,3.12C464.3,447.82,431.22,513.54,448.13,462.34Z"/>
    <path class="cls-9" d="M443.85,409.77c-13.4-23.64-29.11-50-29.11-50s-30.27.23-33.5,11.07c-2.08,7,27.72,38.85,48.87,60.3A82.12,82.12,0,0,0,443.85,409.77Z"/>
    <path class="cls-6" d="M446.51,233.36s-30.62-34-48.52-12.68-45.64,91.66-41.59,120.48c2.42,16.95,18.71,35.06,31.77,47.16l-11,61.8s45.06,12.11,42.17,12.11c-1.73,0,44.48-124,49.1-163.15S446.51,233.36,446.51,233.36Z"/>
    <path class="cls-10" d="M423.06,241c8.55-.12,17.91-1.27,26.11-4.61a35.94,35.94,0,0,0-2.66-3s-30.61-34-48.52-12.68a89.73,89.73,0,0,0-8.77,13C399.22,239.24,412,241.2,423.06,241Z"/>
    <path class="cls-10" d="M377.22,257.46c-12.71,28.94-23.45,64.91-20.79,83.59,2.31,16.83,18.48,34.82,31.54,46.93,4.62-31.37,13-75,18.14-100.08C393.48,280.75,383.08,270.49,377.22,257.46Z"/>
    <path class="cls-4" d="M357.53,154.38a44.81,44.81,0,0,0-4.16,7.75c4.73,7.44,12,13.58,18.28,18.55a20.5,20.5,0,0,0,2.92,2.06l-1.51,7.84L348.3,178.52v.07l24.86,12.09L381.22,148S363.89,145.16,357.53,154.38Z"/>
    <path class="cls-5" d="M353.28,162a91.25,91.25,0,0,0-5.06,16.48l.08,0a91.32,91.32,0,0,1,5.07-16.39Z"/>
    <path class="cls-4" d="M374.57,182.74a20.5,20.5,0,0,1-2.92-2.06c-6.32-5-13.55-11.11-18.28-18.55a91.32,91.32,0,0,0-5.07,16.39l24.76,12.06Z"/>
    <path class="cls-5" d="M374.57,182.74a20.5,20.5,0,0,1-2.92-2.06c-6.32-5-13.55-11.11-18.28-18.55a91.32,91.32,0,0,0-5.07,16.39l24.76,12.06Z"/>
    <g id="bucket">
        <path d="M257,176.81a3.64,3.64,0,0,1-2.2,4.61l-13.63,5a3.65,3.65,0,0,1-4.62-2.19l-5.43-15.11a3.65,3.65,0,0,1,2.2-4.61l13.63-5a3.65,3.65,0,0,1,4.62,2.2Z" style="fill:#23173b"/>
        <path class="cls-12" d="M268,165.55l-42.74,15.3a14.41,14.41,0,0,0-8.71,18.42v0l13.17,36.55a14.46,14.46,0,0,0,18.49,8.65L291,229.16a14.42,14.42,0,0,0,8.68-18.44h0l-13.17-36.55A14.4,14.4,0,0,0,268,165.55Zm27.55,48.5a5.76,5.76,0,0,1-3.47,7.38L273.72,170.7a5.79,5.79,0,0,1,7.4,3.46Z"/>
        <path class="cls-6" d="M254.27,161.47a3.17,3.17,0,0,1-1.85,4l-19.41,7a3.19,3.19,0,0,1-4-1.84l-1.61-4.5a3.16,3.16,0,0,1,1.85-4l19.4-7a3.17,3.17,0,0,1,4,1.85Z"/>
    </g>
    <path id="handsone" class="cls-8" d="M356,165.14l-18.48,35.75S308,184.54,301.31,183.13c-2.34-1-14.61-6-14.61-4.84s5,4.6,5.6,5c-7.2.49-15,1.76-7.94,4.88,0,0-4.62,2.89.58,4,0,0-4.62,4,1.15,4.61l13.29-.58s26.57,24.22,39.86,27.68,34.69-41.42,34.69-41.42Z"/>
    <path class="cls-9" d="M406.07,145.16c-1.15,2.07,4.51-46.24,4.51-46.24l-26.22,17.64s2.31,30.9-.58,31c-1.16,0-5.66,1.73-10.63,3.57,1.15,5.77,3.46,7,5.43,12.57,14.64-.09,30.64-.44,39.64-13.82C413,148.16,407.58,142.27,406.07,145.16Z"/>
    <path class="cls-4" d="M381.22,148l-1.16-4,28.9-6.36,1.16,6.92s34.66,11.53,39.28,37.47,2.31,42.66-2.89,51.31c0,0-40.44,5.77-57.76-2.88s-35.24-73.22-26-79A25.87,25.87,0,0,1,381.22,148Z"/>
    <path class="cls-5" d="M419,219.87c-13.86-.81-30.84-2.42-42.4-11a44.52,44.52,0,0,1-6-5.31c5.2,12.8,11.67,23.64,18.14,26.87,17.33,8.65,57.76,2.88,57.76,2.88,2.31-3.8,4-9.22,4.85-16.37C441,220.1,430.11,220.56,419,219.87Z"/>
    <path id="handstwo" class="cls-8" d="M417.63,199.92l29.46-2.3s-7.51,51.88-16.18,69.75-48.52,88.21-32.92,49c0,0-20.22,30.56-2.89-.57,0,0-19.06,24.79-2.31-1.73,0,0-19.64,22.48,1.15-9.22,0,0-15.59,7.49,1.74-5.19l16.75-43.82Z"/>
    <path id="shadow" class="cls-9" d="M446.39,201.77c.47-2.65.7-4.27.7-4.27l-29.46,2.31-.23,3C427,202.81,436.69,202.35,446.39,201.77Z"/>
    <path class="cls-2" d="M386.78,67.91s14.67-8.53,36.16,5.53c14.21,9.34,13.52,39.2-17.21,58.8C369.22,155.53,386.78,67.91,386.78,67.91Z"/>
    <path class="cls-8" d="M415,103.07c-2.67-1.22-4.21-1.1-5.09-.65a144.53,144.53,0,0,0-2.76-18.6S390.59,71,376.5,77.25c-17.79,8.07-15.94,26.86-16.29,42.89-.46,21.33,16.41,25.36,21.49,25.59,5.38.33,22.6-.52,27.28-23.26a3.83,3.83,0,0,0,1.37.32C418.21,123.25,422,106.42,415,103.07Z"/>
    <path class="cls-2" d="M408.73,103.77s.93,11.52-1.73,11.64-5.66-20.87,2-20.87C416.59,94.77,408.73,103.77,408.73,103.77Z"/>
    <path class="cls-4" d="M408.73,103.77s-5.66-25.6-39.28-21.33a33.34,33.34,0,0,1,15.48-14.07c14.44-6.11,36,18.45,30,34.7C415,103.07,412.22,103.42,408.73,103.77Z"/>
    <path id="womanhair" class="cls-2" d="M422.94,80.13s-1.85-30.55,5.55-30.55-.58,25.71-.58,25.71S434,38.51,451.82,44s-12.93,31.25-12.93,31.25S453,62.37,458,66.75s-20.22,12.93-20.22,12.93,19.06-5.54,21.49,3.69S422.36,91.2,422.94,80.13Z"/>
    <path class="cls-2" d="M361.13,97.89a1.93,1.93,0,0,1,.23-.7,5.72,5.72,0,0,1,1-1.61,8.59,8.59,0,0,1,2.2-1.73,4.83,4.83,0,0,1,.81-.35,2.28,2.28,0,0,1,.81-.23c.34,0,.57-.11.92-.11H368a4.93,4.93,0,0,1,1.73.46,6,6,0,0,1,1.5.81,11.1,11.1,0,0,1,1.16,1,2.89,2.89,0,0,1,.69,1,1,1,0,0,1,.23.46c.12.12.12.35.23.46a2.88,2.88,0,0,1,.23.81,2.7,2.7,0,0,1,.12.69,4.41,4.41,0,0,0-.7-.23l-.69-.34a6.08,6.08,0,0,1-.92-.46c-.35-.12-.58-.35-.93-.47l-1-.34-1-.35c-.34,0-.69-.11-1-.11h-1c-.34,0-.69.11-1,.11a3.29,3.29,0,0,0-1,.23c-.31.11-.69.12-1,.23-.69.23-1.27.35-1.61.47A1.4,1.4,0,0,1,361.13,97.89Z"/>
    <path class="cls-13" d="M370,129.59s19,.58,20.22.35S379.62,138.93,370,129.59Z"/>
    <path class="cls-14" d="M371.3,108.49a2.7,2.7,0,0,1-.12.69c-.11.47-.23,1-.46,1.85a4.77,4.77,0,0,1-.46,1.15,2.63,2.63,0,0,1-.35.58,2.3,2.3,0,0,1-.46.57,3.76,3.76,0,0,1-1.27,1c-.11.12-.23.12-.46.23l-.35.12a3.18,3.18,0,0,1-2.65-.46,3.1,3.1,0,0,1-1-1.39,6.08,6.08,0,0,1-.47-1.38,5.41,5.41,0,0,1-.11-1.27,8.71,8.71,0,0,1,.11-1.84,4,4,0,0,1,.23-.69,12.74,12.74,0,0,0,.35,2.53,6.31,6.31,0,0,0,.81,2.31,3.11,3.11,0,0,0,.81.92,1.89,1.89,0,0,0,1,.35,1,1,0,0,0,.58-.12l.34-.11a.4.4,0,0,1,.23-.12,5.24,5.24,0,0,0,1-.69,6,6,0,0,0,.81-1,5,5,0,0,0,.58-1c.35-.69.58-1.27.81-1.61A3,3,0,0,0,371.3,108.49Z"/>
    <path class="cls-14" d="M390.36,110a3.3,3.3,0,0,1-.11.69c-.12.46-.23,1-.46,1.85a5.24,5.24,0,0,1-.47,1.15,2.59,2.59,0,0,1-.34.58,2.34,2.34,0,0,1-.47.57,3.76,3.76,0,0,1-1.27,1c-.11.12-.23.12-.46.23l-.35.12a2.22,2.22,0,0,1-.92.11,2.42,2.42,0,0,1-1.73-.57,3.17,3.17,0,0,1-1-1.39,6.05,6.05,0,0,1-.46-1.38,5.42,5.42,0,0,1-.12-1.27,8.1,8.1,0,0,1,.12-1.84,3.38,3.38,0,0,1,.23-.7,12.72,12.72,0,0,0,.34,2.54,6.31,6.31,0,0,0,.81,2.31,3.11,3.11,0,0,0,.81.92,1.79,1.79,0,0,0,1,.34,1.06,1.06,0,0,0,.58-.11l.34-.12a.44.44,0,0,1,.24-.11,4.29,4.29,0,0,0,1.8-1.69,4.15,4.15,0,0,0,.58-1c.35-.69.58-1.27.81-1.61A2.48,2.48,0,0,0,390.36,110Z"/>
    <path class="cls-9" d="M411.39,119.56a8,8,0,0,0,.81-1.27,6.58,6.58,0,0,0,.46-1.38v-.69a.35.35,0,0,0-.12-.23.26.26,0,0,0-.23-.23l-.23-.23-.23-.24a.42.42,0,0,0-.35-.11l-.34-.12-.23-.11v-.27a20,20,0,0,1-.58-3.69,4.8,4.8,0,0,1,0-1.85,5.69,5.69,0,0,1,.35-2,1.72,1.72,0,0,1,.69-.92,1.5,1.5,0,0,1,1.15-.34,2.61,2.61,0,0,1,1,.23,2.32,2.32,0,0,1,.93.46c.23.23.58.46.69.69a2.83,2.83,0,0,1,.46.81,3.32,3.32,0,0,1,.23,1.84,5,5,0,0,0-.57-1.73,3.22,3.22,0,0,0-.58-.69A2.31,2.31,0,0,0,414,107a1.65,1.65,0,0,0-.81-.23c-.23,0-.58-.12-.81-.12-.46,0-.69.35-.81.81a10.7,10.7,0,0,0-.23,3.34c.11,1.16.23,2.42.46,3.58l-.23-.35.35.23c.11.12.23.12.34.23l.35.23.35.35a.63.63,0,0,1,.23.46.69.69,0,0,1,.11.46,2.37,2.37,0,0,1,0,.92,3.72,3.72,0,0,1-.81,1.5A8.39,8.39,0,0,1,411.39,119.56Z"/>
    <path class="cls-9" d="M373,124.4a6.29,6.29,0,0,1-1.5.12,4.25,4.25,0,0,1-1.27-.23c-.46-.12-.81-.35-1.15-.46s-.35-.23-.58-.35-.35-.23-.58-.34l-.69-.58.11-.46c1.16-3.35,2.31-6.57,3.47-9.8s2.42-6.57,3.7-9.8c-.81,3.34-1.74,6.8-2.55,10.14s-1.84,6.69-2.77,10l-.46-1c.23,0,.46.11.69.11a1,1,0,0,1,.58.23,5.64,5.64,0,0,1,1.15.58,6.7,6.7,0,0,1,1,.92A2.22,2.22,0,0,1,373,124.4Z"/>
    <path class="cls-2" d="M379.85,96.5a2.14,2.14,0,0,1,.46-.69c.23-.23.35-.46.69-.81a8.55,8.55,0,0,1,1-.8,6.91,6.91,0,0,1,1.39-.81A16.43,16.43,0,0,1,385,92.7a9.63,9.63,0,0,1,2-.35h1l1,.12a9.21,9.21,0,0,1,2,.46c.57.23,1.15.57,1.73.8a7.67,7.67,0,0,1,1.39,1,4.84,4.84,0,0,1,1,1.16,6.38,6.38,0,0,1,.8,1,6.76,6.76,0,0,1,.47.93,8,8,0,0,1,.34.8,7.27,7.27,0,0,1-.81-.34,7.89,7.89,0,0,1-.92-.46,3.26,3.26,0,0,0-1.16-.47,10.28,10.28,0,0,1-1.27-.57c-.46-.12-.92-.35-1.38-.46L389.81,96c-.46,0-.92-.23-1.5-.23l-.69-.12h-2.2a5.41,5.41,0,0,0-1.39.12c-.46,0-.92.12-1.38.12-.81.11-1.62.23-2.08.34A1.9,1.9,0,0,1,379.85,96.5Z"/>
    <path class="cls-15" d="M363.91,490.82a7.63,7.63,0,0,1-15.25.23l-.35-24.44a7.63,7.63,0,0,1,15.25-.23Z"/>
    <path class="cls-15" d="M257.5,492.09a7.63,7.63,0,0,1-15.25.23l-.34-24.44a7.63,7.63,0,0,1,15.25-.23Z"/>
    <path class="cls-4" d="M355.36,473.41a17.15,17.15,0,0,1-17,17.3h0l-71.16.8a17.13,17.13,0,0,1-17.33-16.93v-.07l-7.65-161.59a17.15,17.15,0,0,1,17-17.3h0l82.6-1a17.16,17.16,0,0,1,17.33,17h0Z"/>
    <path class="cls-5" d="M358.71,327.79l.34-16a17.14,17.14,0,0,0-17.33-17h0l-82.6,1a17.14,17.14,0,0,0-17,17.28v0l.81,16Z"/>
    <path class="cls-4" d="M372.8,307.73a4.85,4.85,0,0,1-4.73,4.84l-134.94,1.61a4.86,4.86,0,0,1-4.86-4.72L228,292.39a4.86,4.86,0,0,1,4.74-4.84l134.94-1.61a4.84,4.84,0,0,1,4.85,4.72Z"/>
    <path class="cls-13" d="M314.47,347.14c-.84-1.56-3.65-6.51-6-6.9h-13.2s1.27,0,3.24,3c1.54,2.34,4.53,7.75,5.78,10l-3.08,1.85,11.85.36,3.82-9.8Z"/>
    <path class="cls-13" d="M290.89,342.32s2.43-2.65,4.39-1.27,5.43,7.15,5.43,7.15l-5.66,9.91-10.17-5.65Z"/>
    <path class="cls-13" d="M320.12,370.8c-2.79.27-9,.33-11.62.34l-.16-3.69-6,10.22,6.82,8L309,383c1.82,0,7.45-.06,8.9-2l6.35-11.72S323.7,370.45,320.12,370.8Z"/>
    <path class="cls-13" d="M324.4,364.45s1.27,3.35-.93,4.5-8.89,1.27-8.89,1.27l-6.13-9.69,9.82-6.34Z"/>
    <path class="cls-13" d="M291.26,365.53l3.21,1.69-5.77-10.38-10.4,1.84,2.56,1.35c-.82,1.37-3.81,6.57-2.91,8.77L284.88,380s-.69-1,.81-4.27C286.87,373.17,290,367.72,291.26,365.53Z"/>
    <path class="cls-13" d="M288.93,382.56s-3.58-.7-3.35-3,3.35-8.3,3.35-8.3l11.44-.35.46,11.65Z"/>
    <path class="cls-2" d="M92.22,443s3.35,40.7,5.66,41.4c8.55,2.76,72.44,17.64,11.67-8.31l1-29.63Z"/>
    <path class="cls-3" d="M95.53,474.45C93.8,462.23,92.18,443,92.18,443l18.37,3.46-.92,26.41C105.12,474.22,99.92,474.33,95.53,474.45Z"/>
    <path class="cls-5" d="M70.81,287c.81,9.11,5,38.51,10.16,67.45,6.7,37.25,6.13,87.17,10.63,112.88,5.2,4,25.07-1.5,25.07-1.5,2-66.76-3.46-143.2-8.08-192.08C97.61,280.68,83.63,284,70.81,287Z"/>
    <path class="cls-7" d="M76.7,106c.11-14.07,1.15-32.63,1.15-32.63L50.13,65.68s.92,25.13,1.73,40.47c-12.59,4.26-26.92,12.33-26.92,12.33l52.34,13.26,18.6-18A146.93,146.93,0,0,0,76.7,106Z"/>
    <path class="cls-16" d="M76.7,106c.11-14.07,1.15-32.63,1.15-32.63L50.13,65.68s.92,25.13,1.73,40.47c-12.59,4.26-26.92,12.33-26.92,12.33l52.34,13.26L102,110.53S86.63,104.8,76.7,106Z"/>
    <path class="cls-7" d="M98.53,64.79C96.11,48,93.34,22.94,74.16,19.25S47.7,39.08,47.7,39.08a171.53,171.53,0,0,0,0,18.7c-.85-.45-2.36-.51-4.94,1.36-6,4.39.12,20.53,7.4,18.8a3.71,3.71,0,0,0,.71-.25C57.25,99,71.31,99.94,80.53,98.79,95.53,97,101,81.62,98.53,64.79Z"/>
    <path class="cls-2" d="M41.92,25.59c.47-.11,9.48-.8,3.47-.23,5.55,6,5,7.5,12.59,8.88,4.05,12.45-3.92,20-3.92,20l2.19,15-5.78.57s.12-10.37-4.27-11.3-5.66,4.38-5.66,4.38C31.41,51.3,22.22,28.68,41.92,25.59Z"/>
    <path id="menhair" class="cls-2" d="M94.22,17.18C97.92,8.07,91.68,0,91.68,0a13.15,13.15,0,0,1-.46,9A21.39,21.39,0,0,0,86.94.93S87.63,10.15,75,9s-34.66.58-35.58,20.06,17.79,5.31,17.79,5.31,37.55,10.49,43-19.72Z"/>
    <path class="cls-2" d="M76.47,50.84a3.76,3.76,0,0,1-.81-.11c-.58-.12-1.27-.23-2.08-.35a4.92,4.92,0,0,0-1.27-.11,5.41,5.41,0,0,0-1.39-.12H68.73l-.7.12a7.55,7.55,0,0,0-1.5.23l-1.38.34c-.47.12-.93.35-1.39.47s-.81.34-1.27.46a2.68,2.68,0,0,0-1,.46,5.77,5.77,0,0,0-.81.34,7.32,7.32,0,0,1-.81.35,7.32,7.32,0,0,1,.35-.81,6.08,6.08,0,0,1,.46-.92,6,6,0,0,1,.81-1,11,11,0,0,1,1-1.15A17,17,0,0,1,64,48c.58-.23,1.16-.57,1.73-.81a12.34,12.34,0,0,1,2-.46l1-.11a3.38,3.38,0,0,1,1,.11c.34,0,.69.12.92.12a3.46,3.46,0,0,1,.93.23,6.92,6.92,0,0,1,1.61.69c.47.23.93.58,1.39.81a5.4,5.4,0,0,1,1,.81,3.76,3.76,0,0,0,.69.69A1.09,1.09,0,0,0,76.47,50.84Z"/>
    <path class="cls-2" d="M96,50.27A3.29,3.29,0,0,0,95.3,50a15.62,15.62,0,0,1-1.62-.58l-1-.35a3.46,3.46,0,0,0-1-.23,3.16,3.16,0,0,1-1-.23.69.69,0,0,1-.46-.11h-.46c-.35-.12-.69.11-1,0-.35.11-.69.11-1,.23l-1,.34a9.38,9.38,0,0,0-.93.35c-.31.1-.62.22-.92.35a1.71,1.71,0,0,1-.69.23,3.38,3.38,0,0,0-.7.23,1.73,1.73,0,0,1,.24-.69,3.39,3.39,0,0,1,.34-.81,4.2,4.2,0,0,1,.58-.92,5.54,5.54,0,0,1,.81-1c.34-.35.81-.58,1.15-.92a5.41,5.41,0,0,1,1.51-.7A9.22,9.22,0,0,1,89.88,45h.92a1.8,1.8,0,0,1,.81.23,2.28,2.28,0,0,1,.81.23l.69.35a6.48,6.48,0,0,1,2.08,1.85,14.27,14.27,0,0,1,.93,1.72A8.67,8.67,0,0,1,96,50.27Z"/>
    <path class="cls-17" d="M81.78,51.54c.7,1.49,1.39,3.11,2.08,4.61.35.8.58,1.5.93,2.3l.92,2.31.92,2.31c.35.8.58,1.49.93,2.3L88,66.52c.12.35.35.81.46,1.16a20.27,20.27,0,0,1,1,2.19l.35.92-.69.35c-1,.46-2.08,1-3.24,1.49a27.11,27.11,0,0,1-3.35,1.27c.93-.8,1.85-1.5,2.77-2.19s2-1.38,2.89-2.07l-.34,1.27c-.47-.7-.93-1.5-1.39-2.2a15,15,0,0,1-1.16-2.3l-.57-1.15-.47-1.16c-.23-.8-.57-1.61-.8-2.42l-.7-2.42c-.23-.81-.34-1.61-.58-2.42C82.13,55,81.9,53.26,81.78,51.54Z"/>
    <path class="cls-17" d="M48.28,74.59a3.53,3.53,0,0,1-1.27-1,4.33,4.33,0,0,1-1-1.39,2,2,0,0,1-.23-.92v-.46c0-.12.11-.35.11-.46a2.12,2.12,0,0,1,.58-.81l.35-.34.34-.23-.23.34c0-1.27,0-2.54-.11-3.69a11.49,11.49,0,0,0-.7-3.57,1.2,1.2,0,0,0-.46-.58.9.9,0,0,0-.58-.23.39.39,0,0,0-.34.12c-.12,0-.35.11-.46.11a2.36,2.36,0,0,0-.7.46c-.23.23-.46.35-.58.58a5.43,5.43,0,0,0-.46.81,4.81,4.81,0,0,0-.34,1.84,3.59,3.59,0,0,1-.12-2,1.31,1.31,0,0,1,.35-.92,2.1,2.1,0,0,1,.57-.81l.35-.35.46-.34c.12-.12.35-.12.47-.23s.34-.12.57-.23a1.32,1.32,0,0,1,1.27.34,1.76,1.76,0,0,1,.7.93,14.32,14.32,0,0,1,.69,2,10.39,10.39,0,0,1,.23,2,21.39,21.39,0,0,1,0,3.92v.2l-.23.11a1.2,1.2,0,0,0-.58.46c-.11.12-.34.35-.46.46a.44.44,0,0,0-.12.35c0,.12-.11.23-.11.35v.69a4,4,0,0,0,.69,1.38A8,8,0,0,1,48.28,74.59Z"/>
    <path class="cls-14" d="M66.42,61.8a4,4,0,0,1,.23.69c.11.23.11.46.23.69a6.08,6.08,0,0,0,.46.92c.12.35.46.58.58.93l.46.46a1.72,1.72,0,0,0,.46.34,4.12,4.12,0,0,0,1,.46c.23,0,.35.12.58.12a1,1,0,0,0,.58-.12l.58-.23.64-.38a3,3,0,0,0,.81-.93c.23-.34.35-.69.58-1a3.52,3.52,0,0,0,.23-1.16,2.06,2.06,0,0,1,.12-.92V60.18a4,4,0,0,1,.23.69c.11.23.11.47.23.81a2.93,2.93,0,0,1,.11,1A5.41,5.41,0,0,1,74.42,64,6.58,6.58,0,0,1,74,65.33a3.64,3.64,0,0,1-1,1.27l-.7.46c-.23.12-.57.23-.81.35a2.18,2.18,0,0,1-.92.11c-.35,0-.58-.11-.81-.11a3.72,3.72,0,0,1-1.5-.81,4.44,4.44,0,0,1-.92-1.15,8.37,8.37,0,0,1-.58-1.16,3.16,3.16,0,0,1-.23-1v-1.5Z"/>
    <path class="cls-14" d="M87.33,58.34a4,4,0,0,1,.23.69c.11.23.11.46.23.69a6.58,6.58,0,0,0,.46.92c.12.35.46.58.58.93.12.11.23.23.46.46a1.72,1.72,0,0,0,.46.34,4.12,4.12,0,0,0,1,.46c.24,0,.35.12.58.12a1,1,0,0,0,.58-.12l.58-.23.57-.34a3.11,3.11,0,0,0,.81-.92c.23-.35.35-.7.58-1a3.28,3.28,0,0,0,.23-1.16,2.06,2.06,0,0,1,.12-.92V56.68a4.41,4.41,0,0,1,.23.7c.11.23.11.46.23.8a2.94,2.94,0,0,1,.12,1,5.42,5.42,0,0,1-.12,1.27,6.58,6.58,0,0,1-.46,1.38,3.64,3.64,0,0,1-1,1.27l-.7.46c-.23.12-.57.23-.8.35a2.2,2.2,0,0,1-.93.11c-.35,0-.58-.11-.81-.11a3.78,3.78,0,0,1-1.5-.81A4.44,4.44,0,0,1,88.14,62a9.65,9.65,0,0,1-.58-1.16,3.16,3.16,0,0,1-.23-1V58.34Z"/>
    <path class="cls-17" d="M68.22,78.1s-.12,0,0,.12a2.33,2.33,0,0,0,.57.34A17,17,0,0,0,71,79.71,19.87,19.87,0,0,0,74.22,81a10.65,10.65,0,0,0,1.85.46c.58.12,1.27.23,2,.35a21.08,21.08,0,0,0,3.81.11,13.67,13.67,0,0,0,3.35-.69c.92-.34,1.73-.57,2.31-.8l.92-.35a2.83,2.83,0,0,1-.69.69,11.62,11.62,0,0,1-2.08,1.62,10.22,10.22,0,0,1-3.58,1.38,13.77,13.77,0,0,1-4.39.23,15.09,15.09,0,0,1-2.2-.46,10.22,10.22,0,0,1-2-.81,13.27,13.27,0,0,1-3.12-2,9.25,9.25,0,0,1-1.85-2,1,1,0,0,1-.34-.69C68.12,78.1,68.12,78.22,68.22,78.1Z"/>
    <path id="shadowhands" class="cls-16" d="M22.4,167.29c8.78-2.65,17.33-5.88,26.34-7.84-.35-2.53-.58-4-.58-4l-28.53,6.92s.34,2.07.92,5.53A16.68,16.68,0,0,1,22.4,167.29Z"/>
    <g id="paper">
        <path class="cls-18" d="M76.06,194.07c26.22,4.62,41.36,3.92,41.36,3.92s37.83-17.6,47.49-17.79c-2-.58-5.34-1.25-9.29-1.92-7.09,2.86-18.76,7.09-37.73,13.88l0-.09-.43.15s-42.74-.16-58.83-3.47c-.76.25-1.35.45-1.7.59-3,1.25-4,2.86-4.19,4C54.32,191.6,60.6,191.35,76.06,194.07Z"/>
        <path class="cls-19" d="M117.85,192.07l0,.09c19-6.79,30.64-11,37.73-13.88a59.67,59.67,0,0,0,8.22-3.81C159.49,177.13,147.7,181.47,117.85,192.07Z"/>
        <path class="cls-20" d="M157.54,166.6l.11,0c3.7-1.59,4.58-2.53,4.52-3.56C162.19,164.06,161.25,165,157.54,166.6Z"/>
        <path class="cls-20" d="M66.08,173.73l-15.32-1.18a2.55,2.55,0,0,1,0-1.37c-1.29,1.07-.2,2.84,1.71,4.86a5.71,5.71,0,0,0,2.29,1.14l.36-.17C56.42,176.49,60.53,175.27,66.08,173.73Z"/>
        <path class="cls-20" d="M161.33,160.55c-.15-.48-.75-.72-1.7-.76l.16,0C160.65,159.88,161.19,160.11,161.33,160.55Z"/>
        <path class="cls-19" d="M159.79,159.83c.91.26,1.46.51,1.53.72.22.63-4.52,2.51-11.14,4.79,2.68.42,5.19.85,7.36,1.26,3.71-1.6,4.65-2.54,4.63-3.54a11.45,11.45,0,0,0-.84-2.51C161.19,160.11,160.65,159.88,159.79,159.83Z"/>
        <path class="cls-19" d="M163,150.84l.09.06a1.59,1.59,0,0,0-1-.46,3,3,0,0,1,.36.14A1.36,1.36,0,0,1,163,150.84Z"/>
        <path class="cls-19" d="M163.29,151.21c.22.81.55,1.45.67,2-.12-.59-.45-1.24-.67-2.06h0v0S163.29,151.2,163.29,151.21Z"/>
        <path class="cls-20" d="M167.1,181c-.18-.61-1-.86-2.19-.84-9.66.19-47.49,17.79-47.49,17.79s-15.14.7-41.36-3.92c-15.46-2.72-21.74-2.47-23.36-.7-1.13,1.23,0,3.2,1.88,5.42,4.58,5.42,64.58,5.65,64.58,5.65l.4-.14c-.92-2.19-1.75-4.09-2.74-6.15h.49s48.17-22.42,49.68-17c.57,1.92,1.58,3,.23,4.42C168.7,184.08,167.68,183,167.1,181Z"/>
        <path class="cls-19" d="M167,181.15c-1.51-5.42-49.68,17-49.68,17h-.49c1,2.06,1.82,4,2.74,6.15l0,.08c34.9-12.38,45.17-16.2,47.63-18.81C168.57,184.13,167.56,183.07,167,181.15Z"/>
        <path class="cls-18" d="M74.33,181.85c26.22,4.62,41.36,3.92,41.36,3.92s38.86-18.08,47.87-17.79a58.94,58.94,0,0,0-5.91-1.36l-.11,0c-2.17-.41-4.68-.84-7.36-1.26,6.62-2.28,11.36-4.16,11.14-4.79-.07-.21-.62-.46-1.53-.72l-.16,0c-1.16-.33-2.88-.69-5-1.06C147.77,161,136,164.38,116.27,170c0,0-36.13-1.5-53.45-4.52-4.07,1.05-7,1.86-8,2.25-2.81,1.09-3.74,2.47-4,3.48a2.55,2.55,0,0,0,0,1.37l15.32,1.18c-5.55,1.54-9.66,2.76-10.93,3.28l-.36.17c-2.82,1.26-3.66,2.86-3.85,4C52.54,179.38,58.81,179.12,74.33,181.85Z"/>
        <path class="cls-20" d="M117.85,192.07c29.85-10.6,41.64-14.94,46-17.6,3.52-2.16,2.15-3.23,1.53-5.65-.16-.54-.8-.8-1.81-.84-9-.29-47.87,17.79-47.87,17.79s-15.14.7-41.36-3.92c-15.52-2.73-21.79-2.47-23.39-.69-1.1,1.24,0,3.2,1.9,5.41.71.85,2.78,1.57,5.75,2.18,16.09,3.31,58.83,3.47,58.83,3.47Z"/>
        <path class="cls-13" d="M74.91,159.36c25.19,5,39.86,5,39.86,5s41.39-15.65,47.73-13.78a3,3,0,0,0-.36-.14c-6.72-2.38-40.52-7.34-43.56-7.89-3.35-.6-56.74,9.9-61.93,11.74-3.12,1.11-4,2.59-4.26,3.6C54.08,156.44,60.18,156.46,74.91,159.36Z"/>
        <path class="cls-13" d="M163.28,151.19v0a.14.14,0,0,0,0-.09.37.37,0,0,0-.16-.18l-.09-.06A.69.69,0,0,1,163.28,151.19Z"/>
        <path class="cls-20" d="M116.27,170c19.76-5.59,31.5-9,38.39-11.24,8.55-2.82,9.65-3.94,9.3-5.49-.12-.58-.45-1.22-.67-2,0,0,0,0,0,0a.69.69,0,0,0-.24-.35,1.36,1.36,0,0,0-.54-.26c-6.34-1.87-47.73,13.78-47.73,13.78s-14.67,0-39.86-5c-14.73-2.9-20.83-2.92-22.52-1.47-1.19,1-.16,2.8,1.61,4.81.9,1,4.19,1.94,8.82,2.75C80.14,168.47,116.27,170,116.27,170Z"/>
    </g>
    <path class="cls-15" d="M194.08,490.82a7.63,7.63,0,0,1-15.25.23l-.35-24.44a7.63,7.63,0,0,1,15.25-.23Z"/>
    <path class="cls-15" d="M87.67,492.09a7.63,7.63,0,0,1-15.25.23l-.34-24.44a7.63,7.63,0,0,1,15.25-.23Z"/>
    <path class="cls-12" d="M185.53,473.41a17.15,17.15,0,0,1-17,17.3h0l-71.17.8A17.14,17.14,0,0,1,80,474.56v-.05L72.41,312.87a17.14,17.14,0,0,1,17-17.3h0l82.6-1a17.14,17.14,0,0,1,17.33,16.95v.05Z"/>
    <path d="M188.88,327.79l.35-16a17.17,17.17,0,0,0-17.33-17l-82.61,1a17.14,17.14,0,0,0-17,17.28v0l.81,16Z" style="fill:#1c0c3b"/>
    <path class="cls-12" d="M203,307.73a4.85,4.85,0,0,1-4.73,4.84L63.3,314.18a4.84,4.84,0,0,1-4.85-4.72l-.23-17.07A4.86,4.86,0,0,1,63,287.55l134.94-1.61a4.84,4.84,0,0,1,4.85,4.72Z"/>
    <path class="cls-13" d="M144.64,347.14c-.84-1.57-3.65-6.51-6-6.9h-13.2s1.27,0,3.24,3c1.53,2.34,4.52,7.73,5.77,10l-3.11,1.87,11.89.36,3.82-9.8Z"/>
    <path class="cls-13" d="M121.06,342.32s2.43-2.65,4.39-1.27,5.43,7.15,5.43,7.15l-5.66,9.91-10.16-5.65Z"/>
    <path class="cls-13" d="M150.29,370.8c-2.79.27-9,.33-11.62.34l-.16-3.69-6,10.23,6.82,8L139.2,383c1.82,0,7.45,0,8.9-2l6.35-11.72S153.87,370.45,150.29,370.8Z"/>
    <path class="cls-13" d="M154.57,364.45s1.27,3.35-.93,4.5-8.89,1.27-8.89,1.27l-6.13-9.69,9.82-6.34Z"/>
    <path class="cls-13" d="M121.46,365.48l3.3,1.74-5.89-10.38-10.29,1.84,2.48,1.31c-.79,1.3-3.85,6.59-2.94,8.81L115.06,380s-.7-1,.8-4.27C117.05,373.15,120.21,367.64,121.46,365.48Z"/>
    <path class="cls-13" d="M119.22,382.56s-3.58-.7-3.35-3,3.35-8.3,3.35-8.3l11.44-.35.46,11.65Z"/>
</svg>
